<svg xmlns="http://www.w3.org/2000/svg" viewBox="0 0 384 384" width="384" height="384"><defs><clipPath id="artboard-1066860293178345040"><rect x="0" y="0" width="384" height="384"/></clipPath></defs><g>
<rect fill="#000000" fill-opacity="0" x="0" y="0" width="384" height="384"/>
<g clip-path="url(#artboard-1066860293178345040)">
	<g transform="matrix(0.965925826,-0.258819045,0.258819045,0.965925826,201,192)">
		<g>
			<path d="M-154.75675135928495,59.91674240641573 C-155.00237584229947,57.94259133331371 -155.12924822516925,55.96031998063872 -155.12924822516925,53.978048627963695 C-155.12924822516925,53.978048627963695 -155.12924822516925,-15.126994489918346 -155.12924822516925,-15.126994489918346 C-155.12924822516925,-20.68838260285132 -154.1306120460432,-26.249770715843276 -152.31266078495395,-31.631837731676917 C-164.05130863711324,-37.95557643567578 -173.1612003890553,-50.76045079241647 -173.1612003890553,-63.565325149157154 C-173.1612003890553,-81.56387131778042 -155.16265422080798,-99.5624174864037 -137.16410805256066,-99.5624174864037 C-137.16410805256066,-99.5624174864037 136.06006032259683,-99.5624174864037 136.06006032259683,-99.5624174864037 C154.05860649084414,-99.5624174864037 172.05715265909146,-81.56387131778042 172.05715265909146,-63.565325149157154 C172.05715265909146,-51.09959520746443 163.42343182852423,-38.63386526577171 152.1356749295647,-32.147820086378786 C154.06569455189668,-26.605603364258435 155.12924822468628,-20.866298927056988 155.12924822468628,-15.126994489918346 C155.12924822468628,-15.126994489918346 155.12924822468625,-10.207065871827176 155.12924822468625,-10.207065871827176 C155.12924822468628,-10.207065871827162 155.12924822468628,42.792934127408905 155.12924822468628,42.792934127408905 C155.12924822468628,42.792934127408934 155.12924822468628,53.978048627963695 155.12924822468628,53.978048627963695 C155.12924822468625,77.18162304741952 137.74520992533385,100.38519746687538 115.99622106891883,110.56703820401235 C108.71432935510134,113.97438444524363 100.9505117757757,115.92060265701366 93.18669419645,115.92060265701366 C93.18669419645,115.92060265701366 82.30940484773265,115.92060265701366 82.30940484773265,115.92060265701366 C82.30940484667663,115.92060265884277 23.108969113292833,115.92060265884277 23.108969113292833,115.92060265884277 C23.10896911329283,115.92060265884277 -7.4905951559332955,115.9206026606719 -7.4905951559332955,115.9206026606719 C-7.490595154877235,115.92060265884277 -66.69103088826104,115.92060265884277 -66.69103088826104,115.92060265884277 C-66.69103089037311,115.92060266250101 -93.18669419250136,115.92060266250101 -93.18669419250136,115.92060266250101 C-94.52269513935892,115.92060266250101 -95.85869608621648,115.86297189384206 -97.19221103107098,115.7501963599857 C-114.05223361015985,114.32434203078338 -130.51486100252043,104.08343698728811 -141.55570867491988,90.05186575646968 C-148.5898363684106,81.11234710313991 -153.42328085967785,70.6342090557552 -154.75675135928495,59.91674240641573 Z" fill="#fe9393" stroke="#ffffff" stroke-width="32" style="paint-order: stroke;" />
		</g>
		<g>
			<path d="M-154.75675135928495,59.91674240641573 C-155.00237584229947,57.94259133331371 -155.12924822516925,55.96031998063872 -155.12924822516925,53.978048627963695 C-155.12924822516925,53.978048627963695 -155.12924822516925,-15.126994489918346 -155.12924822516925,-15.126994489918346 C-155.12924822516925,-20.68838260285132 -154.1306120460432,-26.249770715843276 -152.31266078495395,-31.631837731676917 C-164.05130863711324,-37.95557643567578 -173.1612003890553,-50.76045079241647 -173.1612003890553,-63.565325149157154 C-173.1612003890553,-81.56387131778042 -155.16265422080798,-99.5624174864037 -137.16410805256066,-99.5624174864037 C-137.16410805256066,-99.5624174864037 136.06006032259683,-99.5624174864037 136.06006032259683,-99.5624174864037 C154.05860649084414,-99.5624174864037 172.05715265909146,-81.56387131778042 172.05715265909146,-63.565325149157154 C172.05715265909146,-51.09959520746443 163.42343182852423,-38.63386526577171 152.1356749295647,-32.147820086378786 C154.06569455189668,-26.605603364258435 155.12924822468628,-20.866298927056988 155.12924822468628,-15.126994489918346 C155.12924822468628,-15.126994489918346 155.12924822468625,-10.207065871827176 155.12924822468625,-10.207065871827176 C155.12924822468628,-10.207065871827162 155.12924822468628,42.792934127408905 155.12924822468628,42.792934127408905 C155.12924822468628,42.792934127408934 155.12924822468628,53.978048627963695 155.12924822468628,53.978048627963695 C155.12924822468625,77.18162304741952 137.74520992533385,100.38519746687538 115.99622106891883,110.56703820401235 C108.71432935510134,113.97438444524363 100.9505117757757,115.92060265701366 93.18669419645,115.92060265701366 C93.18669419645,115.92060265701366 82.30940484773265,115.92060265701366 82.30940484773265,115.92060265701366 C82.30940484667663,115.92060265884277 23.108969113292833,115.92060265884277 23.108969113292833,115.92060265884277 C23.10896911329283,115.92060265884277 -7.4905951559332955,115.9206026606719 -7.4905951559332955,115.9206026606719 C-7.490595154877235,115.92060265884277 -66.69103088826104,115.92060265884277 -66.69103088826104,115.92060265884277 C-66.69103089037311,115.92060266250101 -93.18669419250136,115.92060266250101 -93.18669419250136,115.92060266250101 C-94.52269513935892,115.92060266250101 -95.85869608621648,115.86297189384206 -97.19221103107098,115.7501963599857 C-114.05223361015985,114.32434203078338 -130.51486100252043,104.08343698728811 -141.55570867491988,90.05186575646968 C-148.5898363684106,81.11234710313991 -153.42328085967785,70.6342090557552 -154.75675135928495,59.91674240641573 Z" fill="#fe9393" stroke="#000000" stroke-width="16" style="paint-order: stroke;" />
		</g>
		<g>
			<g>
				<path d="M-155.12924822521973,-15.12699448991457 C-155.12924822521973,-46.09827150588535 -124.15797120924896,-77.06954852185612 -93.18669419327817,-77.06954852185612 L93.18669419327794,-77.06954852185612 C124.15797120924873,-77.06954852185612 155.1292482252195,-46.09827150588535 155.1292482252195,-15.12699448991457 L155.1292482252195,53.97804862770968 C155.1292482252195,84.94932564368047 124.15797120924873,115.92060265965125 93.18669419327794,115.92060265965125 L-93.18669419327817,115.92060265965125 C-124.15797120924896,115.92060265965125 -155.12924822521973,84.94932564368047 -155.12924822521973,53.97804862770968 L-155.12924822521973,-15.12699448991457 Z" fill="#ffffff"/>
			</g>
			<g>
				<path d="M155.129248225048,-10.207065872365185 C155.129248225048,-10.207065872365192 82.3094048475322,115.92060265670024 82.3094048475322,115.92060265670024 C82.3094048475322,115.92060265670024 93.18669419613178,115.920602656298 93.18669419613178,115.920602656298 C100.95439679074795,115.92060265759658 108.72209938631883,113.97243618146256 116.00119514221637,110.56471006837609 C116.00119514221113,110.56471006836033 155.12924822563818,42.792934126612586 155.12924822563818,42.792934126612586 C155.12924822563818,42.7929341266126 155.129248225048,-10.207065872365177 155.129248225048,-10.207065872365185 ZM103.31340382516572,-75.99755325469269 C103.31340382516464,-75.99755325468398 -7.490595154566819,115.92060266002102 -7.490595154566819,115.92060266002102 C-7.49059515456679,115.92060266002103 23.10896911313668,115.92060265888946 23.10896911313668,115.92060265888946 C23.108969113136666,115.92060265888946 127.4789831259177,-64.85356439792301 127.4789831259177,-64.85356439792301 C120.13747084197392,-70.26912591539613 111.85754755093957,-74.20851905858044 103.31340382516572,-75.99755325469269 ZM14.132320581513795,-77.06954852265127 C14.132320581513795,-77.06954852265126 -97.19221103116433,115.75019635931493 -97.19221103116433,115.75019635931493 C-95.85869608839403,115.86297189335887 -94.52269514017195,115.92060266312457 -93.18669419193094,115.92060266319001 C-93.18669419193094,115.92060266319001 -66.69103088896236,115.92060266221021 -66.69103088896236,115.92060266221021 C-66.69103088896236,115.92060266221024 44.731884848396376,-77.06954852236098 44.731884848396376,-77.06954852236098 C44.73188484839636,-77.06954852236095 14.132320581513795,-77.06954852265127 14.132320581513795,-77.06954852265127 ZM-75.66767941817605,-77.06954852350327 C-75.66767941817605,-77.06954852350327 -154.7567513624873,59.91674240751409 -154.7567513624873,59.91674240751409 C-153.42328086029698,70.63420905547632 -148.58983636869567,81.11234710268351 -141.55570867534158,90.0518657604905 C-141.55570867533987,90.05186576048935 -45.068115151293426,-77.069548523213 -45.068115151293426,-77.069548523213 C-45.06811515129351,-77.06954852321296 -75.66767941817605,-77.06954852350329 -75.66767941817605,-77.06954852350327 Z" fill="#fef6f0"/>
			</g>
			<g>
				<path d="M-173.16120038905532,-63.565325149157154 C-173.16120038905532,-45.56677898053389 -155.16265422043205,-27.568232811910626 -137.1641080518088,-27.568232811910626 L136.06006032184493,-27.568232811910626 C154.05860649046815,-27.568232811910626 172.05715265909143,-45.56677898053389 172.05715265909143,-63.565325149157154 L172.05715265909143,-63.56532514915716 C172.05715265909143,-81.56387131778044 154.05860649046815,-99.5624174864037 136.06006032184493,-99.5624174864037 L-137.1641080518088,-99.5624174864037 C-155.16265422043205,-99.5624174864037 -173.16120038905532,-81.56387131778044 -173.16120038905532,-63.56532514915716 L-173.16120038905532,-63.565325149157154 Z" fill="#fe9393"/>
			</g>
			<g>
				<path d="M135.40514124075142,-99.56241748988072 C135.40514124075142,-99.56241748988072 162.758763006157,-40.90238631296753 162.758763006157,-40.90238631296753 C165.179484030761,-43.66929140821008 167.232351773471,-46.73730914570046 168.78839665566426,-49.97746994684573 C168.7883966556278,-49.97746994685837 146.58370384813247,-97.59558734032093 146.58370384813247,-97.59558734032093 C143.16821026266214,-98.86061364400675 139.6141352906993,-99.56241748927528 136.06006031845126,-99.56241748988488 C136.06006031845126,-99.56241748988488 135.40514124075142,-99.56241748988072 135.40514124075142,-99.56241748988072 ZM98.33847457363397,-99.56241748964499 C98.33847457363397,-99.56241748964499 131.9099142327498,-27.56823280920206 131.9099142327498,-27.56823280920206 C131.90991423274983,-27.568232809202073 136.06006032422866,-27.5682328090908 136.06006032422866,-27.5682328090908 C138.00984032835174,-27.568232809738163 139.95962033245425,-27.77945220705574 141.88651896865682,-28.179009633176506 C141.88651896865636,-28.179009633180193 108.59988921995472,-99.56241748971024 108.59988921995472,-99.56241748971024 C108.5998892199547,-99.56241748971024 98.33847457363397,-99.56241748964499 98.33847457363397,-99.56241748964499 ZM71.53322255283727,-99.56241748947451 C71.53322255283727,-99.56241748947451 61.2718079065165,-99.56241748940924 61.2718079065165,-99.56241748940924 C61.271807906516514,-99.56241748940927 94.843247565059,-27.568232810195838 94.843247565059,-27.568232810195838 C94.84324756505902,-27.568232810195873 105.10466221153848,-27.568232809920758 105.10466221153848,-27.568232809920758 C105.10466221153845,-27.568232809920758 71.53322255283727,-99.5624174894745 71.53322255283727,-99.56241748947451 ZM24.205141239399076,-99.5624174891735 C24.205141239399083,-99.5624174891735 57.776580897368234,-27.568232811189652 57.776580897368234,-27.568232811189652 C57.77658089736826,-27.568232811189667 68.03799554384771,-27.568232810914544 68.03799554384771,-27.568232810914544 C68.03799554384767,-27.568232810914523 34.46655588571981,-99.56241748923878 34.46655588571981,-99.56241748923878 C34.466555885719785,-99.56241748923878 24.20514123939907,-99.56241748917351 24.205141239399076,-99.5624174891735 ZM-12.86152542771839,-99.56241748893777 C-12.86152542771839,-99.56241748893777 20.709914229677423,-27.56823281218344 20.709914229677423,-27.56823281218344 C20.70991422967748,-27.568232812183467 30.971328876156917,-27.568232811908338 30.971328876156917,-27.568232811908338 C30.97132887615689,-27.568232811908324 -2.600110781397632,-99.56241748900305 -2.600110781397632,-99.56241748900305 C-2.6001107813976603,-99.56241748900302 -12.86152542771839,-99.56241748893778 -12.86152542771839,-99.56241748893777 ZM-49.92819209483582,-99.56241748870204 C-49.92819209483582,-99.56241748870204 -16.35675243801336,-27.568232813177246 -16.35675243801336,-27.568232813177246 C-16.35675243801336,-27.568232813177246 -6.095337791533922,-27.56823281290214 -6.095337791533922,-27.56823281290214 C-6.095337791533893,-27.56823281290211 -39.66677744851509,-99.56241748876731 -39.66677744851509,-99.56241748876731 C-39.66677744851509,-99.5624174887673 -49.92819209483582,-99.56241748870202 -49.92819209483582,-99.56241748870204 ZM-76.73344411563254,-99.56241748853157 C-76.73344411563255,-99.56241748853157 -86.99485876195331,-99.56241748846628 -86.99485876195331,-99.56241748846628 C-86.99485876195328,-99.5624174884663 -53.42341910570417,-27.56823281417104 -53.42341910570417,-27.56823281417104 C-53.42341910570414,-27.568232814171054 -43.162004459224676,-27.568232813895932 -43.162004459224676,-27.568232813895932 C-43.162004459224676,-27.56823281389589 -76.73344411563252,-99.56241748853155 -76.73344411563254,-99.56241748853157 ZM-124.06152542907071,-99.56241748823055 C-124.06152542907068,-99.56241748823054 -90.49008577339492,-27.568232815164833 -90.49008577339492,-27.568232815164833 C-90.49008577339492,-27.56823281516484 -80.22867112691543,-27.568232814889733 -80.22867112691543,-27.568232814889733 C-80.22867112691546,-27.568232814889704 -113.80011078274998,-99.56241748829584 -113.80011078274998,-99.56241748829584 C-113.80011078274998,-99.56241748829582 -124.06152542907074,-99.56241748823055 -124.06152542907071,-99.56241748823055 ZM-157.6298633072645,-92.06022718992928 C-157.62986330726324,-92.06022718992745 -127.55675244108573,-27.568232816158584 -127.55675244108573,-27.568232816158584 C-127.55675244108573,-27.56823281615862 -117.29533779460627,-27.568232815883498 -117.29533779460627,-27.568232815883498 C-117.29533779460627,-27.568232815883498 -149.59103285405524,-96.82657437353818 -149.59103285405524,-96.82657437353818 C-152.4143355902129,-95.58998318544046 -155.1213823166509,-93.97376421554834 -157.6298633072645,-92.06022718992928 ZM-157.98982098582337,-35.34811045790275 C-157.98982098581905,-35.348110457909016 -172.90382068383548,-67.3312860227827 -172.90382068383548,-67.3312860227827 C-173.0733617034848,-66.08005662918613 -173.16120038765177,-64.82269088704166 -173.1612003878675,-63.565325144861475 C-173.16120038683238,-52.917347593612405 -166.86183459350445,-42.26937003663163 -157.98982098582337,-35.34811045790275 Z" fill="#fec5c5"/>
			</g>
			<g>
				<path d="M-97.92646613000011,123.71662558825426 C-97.90643346653786,123.71834120372863 -97.88639994119727,123.72004616974614 -97.86636556,123.72174048000001 C-96.30587824,123.8537111 -94.74504988,123.92060266 -93.18669419,123.92060266 C-93.18669419,123.92060266 -67.72273207,123.92060266 -67.72273207,123.92060266 C-67.72273207,123.92060265999996 -67.72273207,-107.56241749 -67.72273207,-107.56241749 C-67.72273207,-107.56241749 -97.92646612999997,-107.56241749 -97.92646612999997,-107.56241749 C-97.92646613000001,-107.56241748999997 -97.92646613000001,123.71662558825284 -97.92646613000011,123.71662558825426 Z" fill="#000000"/>
			</g>
			<g>
				<path d="M-38.95000000000001,-99.56241749 C-38.950000000000024,-99.56241749 -137.16410805,-99.56241749 -137.16410805,-99.56241749 C-155.16265422,-99.56241749 -173.16120039,-81.56387132 -173.16120039,-63.56532515 C-173.16120039,-50.76045079 -164.05130864,-37.95557644 -152.31266078000002,-31.63183773 C-154.13061205,-26.24977072 -155.12924823,-20.6883826 -155.12924823,-15.12699449 C-155.12924823,-15.12699449 -155.12924823,53.97804863 -155.12924823,53.97804863 C-155.12924823,55.96031998 -155.00237584,57.94259133 -154.75675136,59.916742410000005 C-153.42328086,70.63420906 -148.58983637,81.11234710000001 -141.55570867,90.05186576 C-130.514861,104.08343699 -114.05223361,114.32434203 -97.19221103,115.75019636 C-95.85869609,115.86297189 -94.52269514,115.92060266 -93.18669419,115.92060266 C-93.18669419,115.92060266 -66.69103089000001,115.92060266 -66.69103089000001,115.92060266 C-66.69103089000001,115.92060266 -38.95,115.92060266 -38.95,115.92060266 C-38.95,115.92060266000001 -38.949999999999996,-99.56241749 -38.95000000000001,-99.56241749 Z" fill="#000000" fill-opacity="0.12" style=" mix-blend-mode: multiply;"/>
			</g>
			<g>
				<path d="M79.9591228183536,44.95299274644131 C76.74483844950376,50.01789446198715 71.91291889103776,53.84762671273966 66.24785280324632,55.820411448317 C60.58278671545488,57.79319618389434 54.417213284545134,57.79319618389434 48.7521471967537,55.820411448317 C43.08708110896225,53.84762671273967 38.255161550496254,50.01789446198715 35.04087718164641,44.95299274644131" fill="none" stroke="#000000" stroke-width="8" stroke-linecap="round"/>
			</g>
			<g>
				<path d="M-5.707504548493153,41.24936018789653 C-3.602144525758458,39.13308069514354 -2.2999999999999954,36.21698428958389 -2.2999999999999954,33 C-2.2999999999999954,26.5441181 -7.544118099999996,21.299999999999997 -13.999999999999996,21.299999999999997 C-20.455881899999998,21.299999999999997 -25.699999999999996,26.5441181 -25.699999999999996,33 C-25.699999999999996,36.21698428958389 -24.397855474241535,39.13308069514354 -22.29249545150695,41.24936018789659 C-19.81531749137998,39.941001649076135 -16.993270754433755,39.2 -13.999999999999996,39.2 C-11.006729245566236,39.2 -8.184682508620012,39.941001649076135 -5.707504548493153,41.24936018789653 Z" fill="#000000"/>
				<path d="M137.79249545150685,41.24936018789653 C139.89785547424154,39.13308069514354 141.20000000000002,36.21698428958389 141.20000000000002,33 C141.20000000000002,26.5441181 135.9558819,21.299999999999997 129.5,21.299999999999997 C123.0441181,21.299999999999997 117.80000000000001,26.5441181 117.80000000000001,33 C117.80000000000001,36.21698428958389 119.10214452575846,39.13308069514354 121.20750454849305,41.24936018789659 C123.68468250862003,39.941001649076135 126.50672924556625,39.2 129.5,39.2 C132.49327075443375,39.2 135.31531749138,39.941001649076135 137.79249545150685,41.24936018789653 Z" fill="#000000"/>
			</g>
		</g>
	</g>
</g></g></svg>