<?xml version="1.0" encoding="UTF-8" standalone="no"?>
<svg
   viewBox="0 0 384 384"
   width="384"
   height="384"
   version="1.1"
   id="svg16"
   xmlns="http://www.w3.org/2000/svg"
   xmlns:svg="http://www.w3.org/2000/svg">
  <defs
     id="defs1" />
  <path
     d="m 67.024053,289.92912 c -0.748208,-1.84331 -1.383805,-3.7252 -1.896854,-5.63992 0,0 -17.885702,-66.75035 -17.885702,-66.75035 -1.439393,-5.37189 -1.914174,-11.00224 -1.55115,-16.67144 -12.975369,-3.07008 -25.088993,-13.08082 -28.403138,-25.44938 -4.658367,-17.38526 8.068531,-39.42889 25.453786,-44.08725 0,0 263.914285,-70.715623 263.914285,-70.715623 17.38526,-4.658368 39.42888,8.068528 44.08725,25.453788 3.22637,12.04097 -1.8868,26.316515 -11.11122,35.503035 3.29868,4.85385 5.81144,10.12232 7.29689,15.66606 0,0 1.27337,4.75229 1.27337,4.75229 0,0 13.71741,51.19407 13.71741,51.19407 0,0 2.89492,10.80399 2.89492,10.80399 6.00552,22.41293 -4.78064,49.32518 -23.1533,64.78914 -6.15188,5.17593 -13.14744,9.06526 -20.64671,11.07468 0,0 -10.50665,2.81525 -10.50665,2.81525 0,0 -57.18323,15.3222 -57.18323,15.3222 0,0 -29.55691,7.91975 -29.55691,7.91975 0,0 -57.18323,15.3222 -57.18323,15.3222 0,0 -25.59284,6.85758 -25.59284,6.85758 -1.29048,0.34579 -2.59587,0.63593 -3.91314,0.87211 -16.65457,2.98642 -35.20679,-2.64468 -49.503068,-13.34056 -9.108165,-6.81435 -16.488851,-15.68447 -20.550769,-25.69162 z"
     fill="#fe9393"
     stroke="#ffffff"
     stroke-width="32"
     style="paint-order:stroke"
     id="path2" />
  <path
     d="m 67.024053,289.92912 c -0.748208,-1.84331 -1.383805,-3.7252 -1.896854,-5.63992 0,0 -17.885702,-66.75035 -17.885702,-66.75035 -1.439393,-5.37189 -1.914174,-11.00224 -1.55115,-16.67144 -12.975369,-3.07008 -25.088993,-13.08082 -28.403138,-25.44938 -4.658367,-17.38526 8.068531,-39.42889 25.453786,-44.08725 0,0 263.914285,-70.715623 263.914285,-70.715623 17.38526,-4.658368 39.42888,8.068528 44.08725,25.453788 3.22637,12.04097 -1.8868,26.316515 -11.11122,35.503035 3.29868,4.85385 5.81144,10.12232 7.29689,15.66606 0,0 1.27337,4.75229 1.27337,4.75229 0,0 13.71741,51.19407 13.71741,51.19407 0,0 2.89492,10.80399 2.89492,10.80399 6.00552,22.41293 -4.78064,49.32518 -23.1533,64.78914 -6.15188,5.17593 -13.14744,9.06526 -20.64671,11.07468 0,0 -10.50665,2.81525 -10.50665,2.81525 0,0 -57.18323,15.3222 -57.18323,15.3222 0,0 -29.55691,7.91975 -29.55691,7.91975 0,0 -57.18323,15.3222 -57.18323,15.3222 0,0 -25.59284,6.85758 -25.59284,6.85758 -1.29048,0.34579 -2.59587,0.63593 -3.91314,0.87211 -16.65457,2.98642 -35.20679,-2.64468 -49.503068,-13.34056 -9.108165,-6.81435 -16.488851,-15.68447 -20.550769,-25.69162 z"
     fill="#fe9393"
     stroke="#000000"
     stroke-width="16"
     style="paint-order:stroke"
     id="path3" />
  <path
     d="M 47.241497,217.53885 C 39.225541,187.62289 61.125544,149.69098 91.041499,141.67502 L 271.06437,93.438042 c 29.91595,-8.015956 67.84787,13.884048 75.86383,43.799998 l 17.8857,66.75035 c 8.01595,29.91595 -13.88405,67.84787 -43.80001,75.86382 L 140.99103,328.08919 C 111.07507,336.10515 73.143155,314.20515 65.127199,284.2892 Z"
     fill="#ffffff"
     id="path4" />
  <path
     d="m 348.20157,141.99033 c 0,0 -37.69433,140.67713 -37.69433,140.67713 0,0 10.50665,-2.81525 10.50665,-2.81525 7.50303,-2.01043 14.50183,-5.90264 20.65092,-11.07822 0,0 20.25417,-75.58959 20.25417,-75.58959 0,0 -13.71741,-51.19407 -13.71741,-51.19407 z m -67.0781,-50.137803 c 0,0 -57.35637,214.056883 -57.35637,214.056883 0,0 29.55691,-7.91975 29.55691,-7.91975 0,0 54.02589,-201.627379 54.02589,-201.627379 -8.493,-3.330909 -17.51038,-4.993069 -26.22643,-4.509754 z m -86.41976,22.046293 c 0,0 -57.62582,215.06248 -57.62582,215.06248 1.31726,-0.23621 2.62266,-0.52632 3.91314,-0.87211 0,0 25.59284,-6.85758 25.59284,-6.85758 0,0 57.67675,-215.25254 57.67675,-215.25254 0,0 -29.55691,7.91975 -29.55691,7.91975 z m -86.74014,23.24195 c 0,0 -40.939517,152.78835 -40.939517,152.78835 4.061918,10.00715 11.442604,18.87727 20.550769,25.69162 0,0 49.945658,-186.39972 49.945658,-186.39972 0,0 -29.55691,7.91975 -29.55691,7.91975 z"
     fill="#fef6f0"
     id="path5" />
  <path
     d="m 17.287209,175.41803 c 4.658366,17.38526 26.701997,30.11215 44.087252,25.45379 L 325.28874,130.1562 c 17.38527,-4.65837 30.11216,-26.70199 25.45379,-44.087255 v 0 C 346.08416,68.683685 324.04054,55.956789 306.65528,60.615157 L 42.740995,131.33078 c -17.385255,4.65836 -30.112153,26.70199 -25.453786,44.08725 z"
     fill="#fe9393"
     id="path6" />
  <path
     d="m 306.02267,60.784662 c 0,0 41.6039,49.581598 41.6039,49.581598 1.62211,-3.29915 2.81097,-6.79395 3.47538,-10.32644 0,0 -33.77256,-40.24857 -33.77256,-40.24857 -3.62653,-0.337928 -7.24114,-0.09596 -10.67411,0.823907 z m -35.80365,9.593559 c 0,0 51.06099,60.852119 51.06099,60.852119 0,0 4.00873,-1.07414 4.00873,-1.07414 1.88335,-0.50464 3.71202,-1.2133 5.46985,-2.09797 0,0 -50.6278,-60.335858 -50.6278,-60.335858 z m -25.89188,6.93771 c 0,0 -9.91177,2.65585 -9.91177,2.65585 0,0 51.06099,60.852109 51.06099,60.852109 0,0 9.91176,-2.65584 9.91176,-2.65584 z M 198.61172,89.56534 c 0,0 51.06099,60.85211 51.06099,60.85211 0,0 9.91176,-2.65585 9.91176,-2.65585 0,0 -51.06098,-60.85211 -51.06098,-60.85211 z m -35.80365,9.593559 c 0,0 51.06099,60.852111 51.06099,60.852111 0,0 9.91176,-2.65585 9.91176,-2.65585 0,0 -51.06098,-60.85211 -51.06098,-60.85211 0,0 -9.91177,2.655849 -9.91177,2.655849 z m -35.80365,9.593561 c 0,0 51.06099,60.85211 51.06099,60.85211 0,0 9.91176,-2.65585 9.91176,-2.65585 0,0 -51.06098,-60.85211 -51.06098,-60.85211 z m -25.89188,6.93771 c 0,0 -9.91177,2.65585 -9.91177,2.65585 0,0 51.06099,60.85211 51.06099,60.85211 0,0 9.91176,-2.65585 9.91176,-2.65585 z m -45.715425,12.24941 c 0,0 51.060995,60.85211 51.060995,60.85211 0,0 9.91176,-2.65585 9.91176,-2.65585 0,0 -51.060984,-60.85211 -51.060984,-60.85211 z m -30.482807,15.93468 c 0,0 45.74015,54.51099 45.74015,54.51099 0,0 9.911761,-2.65585 9.911761,-2.65585 0,0 -49.120619,-58.53968 -49.120619,-58.53968 -2.407055,1.92518 -4.603546,4.18696 -6.531292,6.68454 z m 14.330481,54.87286 c 0,0 -22.683673,-27.03335 -22.683673,-27.03335 0.160079,1.25248 0.400662,2.48974 0.726093,3.70426 2.755899,10.28515 11.596523,18.93991 21.95758,23.32909 z"
     fill="#fec5c5"
     id="path7" />
  <path
     d="m 138.43052,336.84632 c 0.0199,-0.003 0.0395,-0.007 0.0593,-0.0107 1.54148,-0.27641 3.06643,-0.61577 4.57169,-1.01911 0,0 24.5963,-6.59055 24.5963,-6.59055 0,0 -59.91222,-223.59543 -59.91222,-223.59543 0,0 -29.174563,7.8173 -29.174563,7.8173 0,0 59.859423,223.39841 59.859423,223.39841 z"
     fill="#000000"
     id="path8" />
  <path
     d="m 137.60854,105.91109 c 0,0 -94.867545,25.41969 -94.867545,25.41969 -17.385255,4.65836 -30.112153,26.70199 -25.453786,44.08725 3.314145,12.36856 15.427769,22.3793 28.403138,25.44938 -0.363024,5.6692 0.111757,11.29955 1.55115,16.67144 0,0 17.885702,66.75035 17.885702,66.75035 0.513049,1.91472 1.148646,3.79661 1.896854,5.63992 4.061918,10.00715 11.442604,18.87727 20.550769,25.69162 14.296278,10.69588 32.848498,16.32698 49.503068,13.34056 1.31726,-0.23621 2.62266,-0.52632 3.91314,-0.87211 0,0 25.59284,-6.85758 25.59284,-6.85758 0,0 26.79578,-7.17991 26.79578,-7.17991 0,0 -55.77111,-208.14061 -55.77111,-208.14061 z"
     fill="#000000"
     fill-opacity="0.12"
     style="mix-blend-mode:multiply"
     id="path9" />
  <path
     d="m 289.86927,214.72631 c -1.79386,5.72424 -5.46993,10.67407 -10.43137,14.04586 -4.96144,3.37179 -10.91693,4.96756 -16.89956,4.52822 -5.98262,-0.43933 -11.64111,-2.88798 -16.05676,-6.94838"
     fill="none"
     stroke="#000000"
     stroke-width="8"
     stroke-linecap="round"
     id="path10" />
  <path
     d="m 206.16309,233.32103 c 1.48589,-2.58907 1.98893,-5.74282 1.15631,-8.85019 -1.67091,-6.23591 -8.09361,-9.94406 -14.32952,-8.27315 -6.2359,1.6709 -9.94405,8.09361 -8.27314,14.32951 0.83261,3.10737 2.84513,5.58708 5.42648,7.08635 2.05415,-1.90492 4.58825,-3.35107 7.47953,-4.12579 2.89127,-0.77472 5.80895,-0.78936 8.54034,-0.16673 z"
     fill="#000000"
     id="path11" />
  <path
     d="m 344.77345,196.1805 c 1.48589,-2.58908 1.98892,-5.74283 1.15631,-8.8502 -1.67091,-6.2359 -8.09362,-9.94405 -14.32952,-8.27314 -6.2359,1.6709 -9.94405,8.09361 -8.27315,14.32951 0.83262,3.10737 2.84513,5.58708 5.42649,7.08634 2.05414,-1.90491 4.58824,-3.35107 7.47952,-4.12578 2.89128,-0.77472 5.80895,-0.78937 8.54035,-0.16673 z"
     fill="#000000"
     id="path12" />
</svg>
